# xmcd
#
# Track frame offsets:
# 150
# 14207
# 23791
# 38224
# 53167
# 66571
# 80552
# 94002
# 103139
# 118395
# 128630
# 143127
# 156735
# 170929
# 189068
# 201604
# 214394
# 230220
# 244232
# 258445
#
# Disc length: 3619 seconds
#
#
# Revision: 0
# Processed by: cddbd v1.5.2PL0 Copyright (c) Steve Scherf et al.
# Submitted via: FreeRIP 2.951 
#
DISCID=410e2114
DTITLE=Radio Formula - Bolero Romance
DYEAR=1900
DGENRE=Bolero
TTITLE0=Agustin lara - Mujer
TTITLE1=Toña la negra - Escarcha
TTITLE2=Armando manzanero - Ofrenda
TTITLE3=Rebeca - señora tentacion
TTITLE4=Los panchos - Contigo
TTITLE5=Ma luisa landin - Amor perdido
TTITLE6=fernando fernandez - amar y vivir
TTITLE7=Ana ma gonzalez - Madrid
TTITLE8=Lucho gatica - Nadie
TTITLE9=Elvira rios - Cuando vuelva a tu lado
TTITLE10=Los tres diamantes - usted
TTITLE11=Amparo montes - desvelo de amor
TTITLE12=Daniel santos - Perdon
TTITLE13=Chavela vragas - piensa en mi
TTITLE14=Antonio badu - cabellera negra
TTITLE15=Olga guillot - la gloria eres tu
TTITLE16=Pepe jara - Sabor a mi
TTITLE17=Avelina landin - limosna
TTITLE18=Armando manzanero - no se tu
TTITLE19=Consuelo vidal - Todo y nada
EXTD=
EXTT0=
EXTT1=
EXTT2=
EXTT3=
EXTT4=
EXTT5=
EXTT6=
EXTT7=
EXTT8=
EXTT9=
EXTT10=
EXTT11=
EXTT12=
EXTT13=
EXTT14=
EXTT15=
EXTT16=
EXTT17=
EXTT18=
EXTT19=
PLAYORDER=
